<mxfile host="Electron" modified="2023-12-13T21:14:21.435Z" agent="Mozilla/5.0 (X11; Linux x86_64) AppleWebKit/537.36 (KHTML, like Gecko) draw.io/22.1.2 Chrome/114.0.5735.289 Electron/25.9.4 Safari/537.36" etag="__zy18SdDo6Bm2PLOYQ5" version="22.1.2" type="device">
  <diagram name="Page-1" id="Ma0rX8Xs6on9o0V8Y3Ux">
    <mxGraphModel dx="909" dy="628" grid="1" gridSize="10" guides="1" tooltips="1" connect="1" arrows="1" fold="1" page="1" pageScale="1" pageWidth="850" pageHeight="1100" math="0" shadow="0">
      <root>
        <mxCell id="0" />
        <mxCell id="1" parent="0" />
        <mxCell id="7I0AICs2IUuTaOEYn5is-3" style="edgeStyle=orthogonalEdgeStyle;rounded=0;orthogonalLoop=1;jettySize=auto;html=1;" parent="1" source="7I0AICs2IUuTaOEYn5is-1" target="7I0AICs2IUuTaOEYn5is-2" edge="1">
          <mxGeometry relative="1" as="geometry" />
        </mxCell>
        <mxCell id="7I0AICs2IUuTaOEYn5is-1" value="Begin" style="ellipse;whiteSpace=wrap;html=1;" parent="1" vertex="1">
          <mxGeometry x="320" y="40" width="120" height="80" as="geometry" />
        </mxCell>
        <mxCell id="7I0AICs2IUuTaOEYn5is-5" style="edgeStyle=orthogonalEdgeStyle;rounded=0;orthogonalLoop=1;jettySize=auto;html=1;" parent="1" source="7I0AICs2IUuTaOEYn5is-2" edge="1">
          <mxGeometry relative="1" as="geometry">
            <mxPoint x="380" y="300" as="targetPoint" />
          </mxGeometry>
        </mxCell>
        <mxCell id="7I0AICs2IUuTaOEYn5is-2" value="german_short_word&lt;br&gt;russian_short_word" style="shape=parallelogram;perimeter=parallelogramPerimeter;whiteSpace=wrap;html=1;fixedSize=1;" parent="1" vertex="1">
          <mxGeometry x="305" y="170" width="150" height="80" as="geometry" />
        </mxCell>
        <mxCell id="7I0AICs2IUuTaOEYn5is-7" style="edgeStyle=orthogonalEdgeStyle;rounded=0;orthogonalLoop=1;jettySize=auto;html=1;" parent="1" target="7I0AICs2IUuTaOEYn5is-6" edge="1">
          <mxGeometry relative="1" as="geometry">
            <mxPoint x="380" y="360" as="sourcePoint" />
          </mxGeometry>
        </mxCell>
        <mxCell id="7I0AICs2IUuTaOEYn5is-20" style="edgeStyle=orthogonalEdgeStyle;rounded=0;orthogonalLoop=1;jettySize=auto;html=1;" parent="1" source="7I0AICs2IUuTaOEYn5is-6" target="7I0AICs2IUuTaOEYn5is-8" edge="1">
          <mxGeometry relative="1" as="geometry" />
        </mxCell>
        <mxCell id="7I0AICs2IUuTaOEYn5is-6" value="for char in text.lower()" style="rounded=0;whiteSpace=wrap;html=1;" parent="1" vertex="1">
          <mxGeometry x="290" y="410" width="180" height="60" as="geometry" />
        </mxCell>
        <mxCell id="7I0AICs2IUuTaOEYn5is-15" style="edgeStyle=orthogonalEdgeStyle;rounded=0;orthogonalLoop=1;jettySize=auto;html=1;" parent="1" source="7I0AICs2IUuTaOEYn5is-8" target="7I0AICs2IUuTaOEYn5is-9" edge="1">
          <mxGeometry relative="1" as="geometry" />
        </mxCell>
        <mxCell id="7I0AICs2IUuTaOEYn5is-19" value="yes" style="edgeLabel;html=1;align=center;verticalAlign=middle;resizable=0;points=[];" parent="7I0AICs2IUuTaOEYn5is-15" vertex="1" connectable="0">
          <mxGeometry x="-0.32" relative="1" as="geometry">
            <mxPoint as="offset" />
          </mxGeometry>
        </mxCell>
        <mxCell id="7I0AICs2IUuTaOEYn5is-21" style="edgeStyle=orthogonalEdgeStyle;rounded=0;orthogonalLoop=1;jettySize=auto;html=1;" parent="1" source="7I0AICs2IUuTaOEYn5is-8" target="7I0AICs2IUuTaOEYn5is-11" edge="1">
          <mxGeometry relative="1" as="geometry">
            <Array as="points">
              <mxPoint x="200" y="560" />
              <mxPoint x="200" y="620" />
              <mxPoint x="380" y="620" />
            </Array>
          </mxGeometry>
        </mxCell>
        <mxCell id="mgRzMiaPKl92y2g9_rdM-6" value="no" style="edgeLabel;html=1;align=center;verticalAlign=middle;resizable=0;points=[];" vertex="1" connectable="0" parent="7I0AICs2IUuTaOEYn5is-21">
          <mxGeometry x="-0.779" y="1" relative="1" as="geometry">
            <mxPoint as="offset" />
          </mxGeometry>
        </mxCell>
        <mxCell id="7I0AICs2IUuTaOEYn5is-8" value="char in german_word" style="rhombus;whiteSpace=wrap;html=1;" parent="1" vertex="1">
          <mxGeometry x="270" y="520" width="220" height="80" as="geometry" />
        </mxCell>
        <mxCell id="mgRzMiaPKl92y2g9_rdM-3" style="edgeStyle=orthogonalEdgeStyle;rounded=0;orthogonalLoop=1;jettySize=auto;html=1;entryX=1;entryY=0.5;entryDx=0;entryDy=0;" edge="1" parent="1" source="7I0AICs2IUuTaOEYn5is-9" target="7I0AICs2IUuTaOEYn5is-6">
          <mxGeometry relative="1" as="geometry">
            <Array as="points">
              <mxPoint x="760" y="560" />
              <mxPoint x="760" y="440" />
            </Array>
          </mxGeometry>
        </mxCell>
        <mxCell id="7I0AICs2IUuTaOEYn5is-9" value="german_count += 1" style="rounded=0;whiteSpace=wrap;html=1;" parent="1" vertex="1">
          <mxGeometry x="600" y="530" width="120" height="60" as="geometry" />
        </mxCell>
        <mxCell id="7I0AICs2IUuTaOEYn5is-14" style="edgeStyle=orthogonalEdgeStyle;rounded=0;orthogonalLoop=1;jettySize=auto;html=1;entryX=0;entryY=0.5;entryDx=0;entryDy=0;" parent="1" source="7I0AICs2IUuTaOEYn5is-11" target="7I0AICs2IUuTaOEYn5is-12" edge="1">
          <mxGeometry relative="1" as="geometry" />
        </mxCell>
        <mxCell id="7I0AICs2IUuTaOEYn5is-18" value="yes" style="edgeLabel;html=1;align=center;verticalAlign=middle;resizable=0;points=[];" parent="7I0AICs2IUuTaOEYn5is-14" vertex="1" connectable="0">
          <mxGeometry x="-0.1867" y="1" relative="1" as="geometry">
            <mxPoint as="offset" />
          </mxGeometry>
        </mxCell>
        <mxCell id="7I0AICs2IUuTaOEYn5is-23" style="edgeStyle=orthogonalEdgeStyle;rounded=0;orthogonalLoop=1;jettySize=auto;html=1;" parent="1" source="7I0AICs2IUuTaOEYn5is-11" target="7I0AICs2IUuTaOEYn5is-22" edge="1">
          <mxGeometry relative="1" as="geometry">
            <Array as="points">
              <mxPoint x="200" y="690" />
              <mxPoint x="200" y="750" />
              <mxPoint x="380" y="750" />
            </Array>
          </mxGeometry>
        </mxCell>
        <mxCell id="mgRzMiaPKl92y2g9_rdM-5" value="no" style="edgeLabel;html=1;align=center;verticalAlign=middle;resizable=0;points=[];" vertex="1" connectable="0" parent="7I0AICs2IUuTaOEYn5is-23">
          <mxGeometry x="-0.7635" y="1" relative="1" as="geometry">
            <mxPoint as="offset" />
          </mxGeometry>
        </mxCell>
        <mxCell id="7I0AICs2IUuTaOEYn5is-11" value="char in russian_word" style="rhombus;whiteSpace=wrap;html=1;" parent="1" vertex="1">
          <mxGeometry x="270" y="650" width="220" height="80" as="geometry" />
        </mxCell>
        <mxCell id="mgRzMiaPKl92y2g9_rdM-4" style="edgeStyle=orthogonalEdgeStyle;rounded=0;orthogonalLoop=1;jettySize=auto;html=1;entryX=1;entryY=0.5;entryDx=0;entryDy=0;" edge="1" parent="1" source="7I0AICs2IUuTaOEYn5is-12" target="7I0AICs2IUuTaOEYn5is-6">
          <mxGeometry relative="1" as="geometry">
            <Array as="points">
              <mxPoint x="760" y="690" />
              <mxPoint x="760" y="440" />
            </Array>
          </mxGeometry>
        </mxCell>
        <mxCell id="7I0AICs2IUuTaOEYn5is-12" value="russian_count += 1" style="rounded=0;whiteSpace=wrap;html=1;" parent="1" vertex="1">
          <mxGeometry x="600" y="660" width="120" height="60" as="geometry" />
        </mxCell>
        <mxCell id="mgRzMiaPKl92y2g9_rdM-8" style="edgeStyle=orthogonalEdgeStyle;rounded=0;orthogonalLoop=1;jettySize=auto;html=1;" edge="1" parent="1" source="7I0AICs2IUuTaOEYn5is-22" target="mgRzMiaPKl92y2g9_rdM-7">
          <mxGeometry relative="1" as="geometry" />
        </mxCell>
        <mxCell id="7I0AICs2IUuTaOEYn5is-22" value="german_confidence = german_count / total_chars&lt;br&gt;russian_confidence = russian_count / total_chars" style="rounded=0;whiteSpace=wrap;html=1;" parent="1" vertex="1">
          <mxGeometry x="240" y="790" width="280" height="60" as="geometry" />
        </mxCell>
        <mxCell id="mgRzMiaPKl92y2g9_rdM-1" value="german_count = 0&lt;br&gt;russian_count = 0" style="shape=parallelogram;perimeter=parallelogramPerimeter;whiteSpace=wrap;html=1;fixedSize=1;" vertex="1" parent="1">
          <mxGeometry x="305" y="300" width="150" height="60" as="geometry" />
        </mxCell>
        <mxCell id="mgRzMiaPKl92y2g9_rdM-12" style="edgeStyle=orthogonalEdgeStyle;rounded=0;orthogonalLoop=1;jettySize=auto;html=1;" edge="1" parent="1" source="mgRzMiaPKl92y2g9_rdM-7" target="mgRzMiaPKl92y2g9_rdM-11">
          <mxGeometry relative="1" as="geometry" />
        </mxCell>
        <mxCell id="mgRzMiaPKl92y2g9_rdM-13" style="edgeStyle=orthogonalEdgeStyle;rounded=0;orthogonalLoop=1;jettySize=auto;html=1;" edge="1" parent="1" source="mgRzMiaPKl92y2g9_rdM-7" target="mgRzMiaPKl92y2g9_rdM-9">
          <mxGeometry relative="1" as="geometry" />
        </mxCell>
        <mxCell id="mgRzMiaPKl92y2g9_rdM-7" value="german_confidence &amp;gt;= russian_confidence" style="rhombus;whiteSpace=wrap;html=1;" vertex="1" parent="1">
          <mxGeometry x="270" y="910" width="220" height="80" as="geometry" />
        </mxCell>
        <mxCell id="mgRzMiaPKl92y2g9_rdM-15" style="edgeStyle=orthogonalEdgeStyle;rounded=0;orthogonalLoop=1;jettySize=auto;html=1;" edge="1" parent="1" source="mgRzMiaPKl92y2g9_rdM-9" target="mgRzMiaPKl92y2g9_rdM-14">
          <mxGeometry relative="1" as="geometry">
            <Array as="points">
              <mxPoint x="200" y="1090" />
              <mxPoint x="380" y="1090" />
            </Array>
          </mxGeometry>
        </mxCell>
        <mxCell id="mgRzMiaPKl92y2g9_rdM-9" value="return russian_confidence" style="rounded=0;whiteSpace=wrap;html=1;" vertex="1" parent="1">
          <mxGeometry x="140" y="1010" width="120" height="60" as="geometry" />
        </mxCell>
        <mxCell id="mgRzMiaPKl92y2g9_rdM-16" style="edgeStyle=orthogonalEdgeStyle;rounded=0;orthogonalLoop=1;jettySize=auto;html=1;" edge="1" parent="1" source="mgRzMiaPKl92y2g9_rdM-11" target="mgRzMiaPKl92y2g9_rdM-14">
          <mxGeometry relative="1" as="geometry">
            <Array as="points">
              <mxPoint x="560" y="1090" />
              <mxPoint x="380" y="1090" />
            </Array>
          </mxGeometry>
        </mxCell>
        <mxCell id="mgRzMiaPKl92y2g9_rdM-11" value="return german_confidence" style="rounded=0;whiteSpace=wrap;html=1;" vertex="1" parent="1">
          <mxGeometry x="500" y="1010" width="120" height="60" as="geometry" />
        </mxCell>
        <mxCell id="mgRzMiaPKl92y2g9_rdM-14" value="End" style="ellipse;whiteSpace=wrap;html=1;" vertex="1" parent="1">
          <mxGeometry x="320" y="1110" width="120" height="80" as="geometry" />
        </mxCell>
      </root>
    </mxGraphModel>
  </diagram>
</mxfile>
